<?xml version="1.0" standalone="no"?>
<!DOCTYPE svg PUBLIC "-//W3C//DTD SVG 20010904//EN"
 "http://www.w3.org/TR/2001/REC-SVG-20010904/DTD/svg10.dtd">
<svg version="1.0" xmlns="http://www.w3.org/2000/svg"
 width="260.000000pt" height="260.000000pt" viewBox="0 0 260.000000 260.000000"
 preserveAspectRatio="xMidYMid meet">
<metadata>
Created by potrace 1.11, written by Peter Selinger 2001-2013
</metadata>
<g transform="translate(0.000000,260.000000) scale(0.100000,-0.100000)"
fill="#000000" stroke="none">
<path d="M579 2226 c-2 -2 -24 -6 -49 -10 -99 -12 -147 -39 -189 -103 -49 -74
-57 -166 -27 -298 46 -201 50 -247 30 -305 -19 -57 -40 -83 -91 -108 -48 -25
-76 -30 -168 -31 l-70 -1 -1 -70 0 -70 61 -1 c118 -1 168 -14 210 -51 74 -64
85 -136 48 -309 -49 -231 -49 -281 -6 -368 52 -101 143 -136 370 -140 l141 -3
1 71 0 71 -97 0 c-167 1 -217 15 -253 73 -24 39 -21 104 15 267 32 151 33 218
3 283 -27 60 -85 122 -140 152 -37 19 -48 35 -25 35 24 0 116 80 147 128 49
77 51 143 11 337 -33 163 -34 207 -5 252 31 46 88 61 241 62 l102 1 1 70 1 70
-128 0 c-71 0 -131 -2 -133 -4z"/>
<path d="M1759 2228 c-5 -14 -4 -130 1 -133 4 -2 56 -5 116 -6 127 -2 178 -15
218 -60 27 -30 28 -35 23 -103 -3 -39 -15 -116 -27 -171 -28 -129 -29 -225 -2
-285 23 -51 85 -118 137 -146 19 -10 35 -21 35 -24 0 -3 -20 -18 -44 -33 -25
-15 -60 -46 -80 -67 -81 -90 -88 -170 -37 -410 12 -52 21 -119 21 -148 0 -45
-4 -57 -32 -87 -40 -42 -79 -52 -219 -54 -57 -1 -106 -5 -109 -7 -2 -3 -5 -35
-5 -70 l-1 -65 144 2 c227 5 309 35 369 137 25 42 28 56 27 137 -1 58 -12 142
-31 234 -33 162 -31 207 11 272 25 38 88 74 141 83 17 2 60 5 98 5 l67 1 0 70
0 70 -65 0 c-83 0 -156 16 -197 43 -61 41 -93 141 -74 234 3 17 17 83 31 147
29 133 31 194 10 257 -32 93 -100 146 -214 167 -49 9 -310 17 -312 10z"/>
<path d="M1075 1855 l1 -205 -128 0 -128 0 0 -70 0 -70 128 0 127 0 0 -237 c0
-312 10 -386 66 -467 85 -125 308 -169 507 -102 45 16 83 31 83 35 1 3 2 38 3
77 l2 71 -51 -23 c-180 -83 -338 -66 -402 43 l-28 48 -3 278 -3 277 229 0 230
0 -1 70 0 70 -229 0 -228 0 0 205 0 205 -88 0 -87 0 0 -205z"/>
</g>
</svg>
