<?xml version="1.0" standalone="no"?>
<!DOCTYPE svg PUBLIC "-//W3C//DTD SVG 20010904//EN"
 "http://www.w3.org/TR/2001/REC-SVG-20010904/DTD/svg10.dtd">
<svg version="1.0" xmlns="http://www.w3.org/2000/svg"
 width="260.000000pt" height="260.000000pt" viewBox="0 0 260.000000 260.000000"
 preserveAspectRatio="xMidYMid meet">
<metadata>
Created by potrace 1.11, written by Peter Selinger 2001-2013
</metadata>
<g transform="translate(0.000000,260.000000) scale(0.100000,-0.100000)"
fill="#000000" stroke="none">
<path d="M530 2219 c-89 -15 -152 -50 -187 -103 -60 -91 -61 -149 -8 -399 14
-64 25 -127 25 -140 0 -50 -24 -103 -64 -143 -47 -48 -103 -64 -216 -64 l-70
0 0 -70 0 -70 70 0 c113 0 169 -16 216 -64 40 -40 64 -93 64 -144 0 -13 -14
-92 -32 -175 -32 -158 -39 -261 -19 -312 51 -130 157 -175 414 -175 l117 0 0
69 0 69 -132 4 c-144 4 -183 16 -214 63 -28 42 -27 94 5 252 17 84 31 175 31
203 0 93 -53 183 -143 241 l-58 37 57 38 c59 39 110 101 131 157 19 53 15 130
-17 284 -35 171 -36 197 -10 240 33 55 69 66 218 71 l132 4 0 69 0 69 -127 -1
c-71 -1 -153 -5 -183 -10z"/>
<path d="M1760 2160 l0 -70 100 0 c138 0 192 -13 230 -56 39 -44 39 -87 4
-255 -30 -143 -34 -247 -11 -301 20 -47 95 -129 142 -154 19 -10 35 -21 35
-24 0 -3 -14 -14 -32 -24 -56 -33 -109 -88 -135 -140 -34 -67 -34 -157 1 -323
32 -151 33 -211 5 -247 -38 -49 -73 -59 -211 -64 l-128 -4 0 -69 0 -69 119 0
c131 0 256 20 304 48 41 23 93 93 107 140 16 60 12 122 -21 279 -38 182 -37
250 5 313 38 58 95 82 213 88 l93 5 0 68 0 69 -73 0 c-132 0 -213 37 -248 114
-26 58 -24 125 11 288 32 150 36 210 20 270 -14 47 -66 117 -107 140 -48 28
-173 48 -304 48 l-119 0 0 -70z"/>
<path d="M1080 1855 l0 -205 -130 0 -130 0 0 -70 0 -70 129 0 130 0 3 -297 c3
-289 4 -300 27 -351 30 -66 103 -134 179 -164 48 -19 75 -22 172 -22 103 0
123 4 195 30 l80 30 3 77 3 76 -53 -24 c-183 -84 -341 -67 -405 42 l-28 48 -3
278 -3 277 230 0 231 0 0 70 0 70 -230 0 -230 0 0 205 0 205 -85 0 -85 0 0
-205z"/>
</g>
</svg>
